<?xml version="1.0" standalone="no"?><!DOCTYPE svg PUBLIC "-//W3C//DTD SVG 1.1//EN" "http://www.w3.org/Graphics/SVG/1.1/DTD/svg11.dtd"><svg t="1587461757651" class="icon" viewBox="0 0 1024 1024" version="1.1" xmlns="http://www.w3.org/2000/svg" p-id="2034" xmlns:xlink="http://www.w3.org/1999/xlink" width="200" height="200"><defs><style type="text/css"></style></defs><path d="M53.512 168.929l62.678 191.39 54.995-12.155-84.548-186.682zM958.804 168.929l-34.046-9.439-44.742 183.928 33.218 4.746z" fill="#84C4D0" p-id="2035"></path><path d="M676.02 90.532c-24.436 34.33-68.312 81.513-172.438 85.987-75.195-15.59-117.316-55.821-139.708-87.566l-281.46 72.529 61.742 192.66 73.403-21.167v592.392h568.083V329.94l94.374 13.478 44.742-183.928L676.02 90.532z" fill="#F5C4C4" p-id="2036"></path><path d="M503.582 176.519c104.126-4.474 148.002-51.657 172.438-85.987l-24.045-6.662s-114.441 157.967-268.352 0l-19.749 5.083c22.392 31.745 64.513 71.976 139.708 87.566z" fill="#84C4D0" p-id="2037"></path></svg>